<svg width="467" height="154" viewBox="0 0 467 154" fill="none" xmlns="http://www.w3.org/2000/svg">
<path d="M102.685 151H66.0573L44.4851 103.586L33.6989 115.496V151H0.891103V-0.00587415H33.6989V78.1936L63.8102 40.4421H103.584L67.855 80.8901L102.685 151ZM153.598 126.731C169.777 126.731 177.642 116.844 177.642 95.7211C177.642 74.5982 169.777 65.1604 153.598 65.1604C137.419 65.1604 129.554 74.5982 129.554 95.7211C129.554 116.844 137.419 126.731 153.598 126.731ZM153.598 153.921C117.42 153.921 96.0721 130.102 96.0721 95.7211C96.0721 60.6661 118.094 37.5209 153.598 37.5209C188.653 37.5209 210.45 60.4414 210.45 95.7211C210.45 130.776 188.428 153.921 153.598 153.921ZM252.919 151H220.336V-0.00587415H252.919V151ZM295.668 84.4855H336.116C335.217 69.8793 327.128 63.3627 315.892 63.3627C304.657 63.3627 296.792 70.5534 295.668 84.4855ZM368.699 104.035H294.994C295.893 117.967 304.432 128.079 316.791 128.079C324.881 128.079 332.296 124.259 333.869 118.417H367.351C360.61 141.113 342.183 153.921 318.364 153.921C281.062 153.921 262.411 133.697 262.411 93.6987C262.411 59.5426 282.186 37.5209 316.342 37.5209C350.273 37.5209 368.699 58.419 368.699 99.3164V104.035ZM466.823 151H426.824L410.869 120.439L395.364 151H356.489L392.218 94.5975L357.613 40.4421H396.937L412.218 69.8793L427.723 40.4421H465.699L430.195 94.5975L466.823 151Z" fill="url(#paint0_linear_501_3682)"/>
<defs>
<linearGradient id="paint0_linear_501_3682" x1="195.5" y1="-53.5463" x2="426.706" y2="161.015" gradientUnits="userSpaceOnUse">
<stop stop-color="#FF0000"/>
<stop offset="1" stop-color="#FF00C7"/>
</linearGradient>
</defs>
</svg>
